<?xml version="1.0" encoding="UTF-8" standalone="no"?>
<svg xmlns:svg="http://www.w3.org/2000/svg" xmlns="http://www.w3.org/2000/svg" width="40" height="40" viewBox="0 0 40 40" overflow="visible" enable-background="new 0 0 642.202 401.862" xml:space="preserve" id="svg2" version="1.1" style="overflow:visible"><defs id="defs214"/><g id="g37" transform="matrix(0.33195021,0,0,0.33195021,-11.208299,-78.792366)"><polygon style="fill:#88bfcc" id="polygon39" points="123.53,317.672 126.061,329.713 114.037,327.187 94.015,357.862 73.973,327.154 61.795,329.713 61.795,329.713 64.347,317.572 33.765,297.612 64.359,277.645 61.795,265.448 74.009,268.015 94.015,237.362 114,267.982 126.061,265.448 123.518,277.544 154.265,297.612 "/><g id="g41"><path style="clip-rule:evenodd;fill:#ffffff;fill-rule:evenodd" id="path43" d="m 112.253,293.867 -20.245,0 0,8.172 10.648,0 0,12.147 c -2.625,0.825 -3.825,1.049 -6.374,1.049 -10.272,0 -16.796,-6.898 -16.796,-17.771 0,-10.572 6.598,-16.87 17.545,-16.87 4.8,0 8.999,0.899 13.198,2.774 l 0.674,-8.849 c -4.273,-1.349 -8.772,-2.024 -13.496,-2.024 -17.921,0 -28.644,9.447 -28.644,25.344 0,7.873 3,15.372 7.799,19.57 4.349,3.824 10.797,5.849 18.896,5.849 6.224,0 11.698,-0.825 16.796,-2.625 l 0,-26.766 -0.001,0 z"/></g></g></svg>