<?xml version="1.0" encoding="UTF-8" standalone="no"?>
<!-- Created with Inkscape (http://www.inkscape.org/) -->

<svg
   xmlns:dc="http://purl.org/dc/elements/1.1/"
   xmlns:cc="http://creativecommons.org/ns#"
   xmlns:rdf="http://www.w3.org/1999/02/22-rdf-syntax-ns#"
   xmlns:svg="http://www.w3.org/2000/svg"
   xmlns="http://www.w3.org/2000/svg"
   xmlns:sodipodi="http://sodipodi.sourceforge.net/DTD/sodipodi-0.dtd"
   xmlns:inkscape="http://www.inkscape.org/namespaces/inkscape"
   width="200.00002"
   height="200.00002"
   id="svg2"
   version="1.1"
   inkscape:version="0.91 r13725"
   sodipodi:docname="logo-osm-area-tools.svg"
   inkscape:export-filename="/home/sqrt/sw/osmcode/logo/osmcode-logos.png"
   inkscape:export-xdpi="53.990002"
   inkscape:export-ydpi="53.990002">
  <defs
     id="defs4">
    <inkscape:path-effect
       effect="spiro"
       id="path-effect4133"
       is_visible="true" />
    <clipPath
       clipPathUnits="userSpaceOnUse"
       id="clipPath4033">
      <g
         id="g4035"
         transform="matrix(-0.10398261,-0.32484293,0.48747917,-0.02959405,486.19352,862.91729)">
        <circle
           id="path4037"
           style="fill:#202060;fill-opacity:1;stroke:#ffffff;stroke-width:0;stroke-linecap:round;stroke-linejoin:round;stroke-miterlimit:4;stroke-dasharray:none;stroke-dashoffset:0;stroke-opacity:1"
           cx="0"
           cy="0"
           r="100" />
      </g>
    </clipPath>
  </defs>
  <sodipodi:namedview
     id="base"
     pagecolor="#ffffff"
     bordercolor="#666666"
     borderopacity="1.0"
     inkscape:pageopacity="0"
     inkscape:pageshadow="2"
     inkscape:zoom="3.959798"
     inkscape:cx="10.989428"
     inkscape:cy="120.61308"
     inkscape:document-units="px"
     inkscape:current-layer="layer1"
     showgrid="true"
     inkscape:window-width="2560"
     inkscape:window-height="1313"
     inkscape:window-x="0"
     inkscape:window-y="49"
     inkscape:window-maximized="1"
     inkscape:object-nodes="true"
     inkscape:snap-global="true"
     fit-margin-top="0"
     fit-margin-left="0"
     fit-margin-right="0"
     fit-margin-bottom="0" />
  <metadata
     id="metadata7">
    <rdf:RDF>
      <cc:Work
         rdf:about="">
        <dc:format>image/svg+xml</dc:format>
        <dc:type
           rdf:resource="http://purl.org/dc/dcmitype/StillImage" />
        <dc:title />
      </cc:Work>
    </rdf:RDF>
  </metadata>
  <g
     inkscape:label="Layer 1"
     inkscape:groupmode="layer"
     id="layer1"
     transform="translate(-400,-800)">
    <text
       xml:space="preserve"
       style="font-style:normal;font-variant:normal;font-weight:bold;font-stretch:normal;font-size:64px;line-height:85.00000238%;font-family:Impact;-inkscape-font-specification:'Impact Bold';text-align:center;letter-spacing:-1.41000009px;word-spacing:0px;text-anchor:middle;fill:#ffffff;fill-opacity:1;stroke:none"
       x="502.3259"
       y="899.03046"
       id="text3067-0"
       sodipodi:linespacing="85.000002%"><tspan
         sodipodi:role="line"
         x="502.3259"
         y="899.03046"
         id="tspan3071-7" /></text>
    <g
       id="extra"
       transform="translate(500,900)">
      <circle
         r="100"
         cy="0"
         cx="0"
         id="path2991-9-0-35-8"
         style="fill:#202060;fill-opacity:1;stroke:#ffffff;stroke-width:0;stroke-linecap:round;stroke-linejoin:round;stroke-miterlimit:4;stroke-dasharray:none;stroke-dashoffset:0;stroke-opacity:1" />
    </g>
    <flowRoot
       transform="translate(144.95195,1106.4772)"
       xml:space="preserve"
       id="flowRoot3815-0"
       style="font-style:normal;font-variant:normal;font-weight:normal;font-stretch:normal;font-size:64px;line-height:125%;font-family:Arial;-inkscape-font-specification:Arial;letter-spacing:0px;word-spacing:0px;fill:#ffffff;fill-opacity:1;stroke:none"><flowRegion
         id="flowRegion3817-3"><rect
           id="rect3819-1"
           width="100"
           height="200"
           x="0"
           y="0"
           style="font-style:normal;font-variant:normal;font-weight:normal;font-stretch:normal;font-size:64px;font-family:Arial;-inkscape-font-specification:Arial;fill:#ffffff" /></flowRegion><flowPara
         id="flowPara3821-36">OPLLOPL</flowPara></flowRoot>    <g
       transform="matrix(0.72208021,0,0,-0.72208021,444.24342,928.30041)"
       id="g3399"
       style="fill:#ffffff;stroke:#ffffff">
      <path
         inkscape:connector-curvature="0"
         d="m 190.4375,-3.90625 q 0,-1.46875 -0.6875,-4 -4.78125,3.21875 -9.57813,6.4375 -7.3125,4.796875 -9.375,4.796875 -1.95312,0 -8.20312,-5.671875 -1.95313,-1.765625 -3.95313,-6.296875 -2,-4.546875 -2.29687,-7.375 8.70312,-6.546875 19.04687,-13.96875 -3.21875,-2.828125 -8.29687,-2.828125 -5.85938,0 -9.96875,1.265625 -9.76563,2.9375 -14.25,11.53125 -0.29688,1.453125 -1.07813,4.1875 -1.17187,4.203125 -2.34375,8.359375 -1.17187,4.140625 -4.48437,7.953125 l -44.4375,50.59375 Q 80.46875,62.5 59.859375,85.0625 56.9375,88.09375 48.34375,90.921875 45.015625,92 41.890625,92 q -1.453125,0 -4.4375,-0.640625 -2.984375,-0.640625 -4.4375,-0.640625 -2.34375,0 -8.109375,2.453125 -1.375,0.96875 -4.109375,2.828125 -6.828125,4.39063 -9.46875,8.78125 -0.96875,1.5625 -2.140625,7.32813 -1.171875,5.76562 -1.171875,8.01562 0,0.28125 0.96875,1.75 3.71875,-2.14062 13.875,-8.59375 1.953125,-1.35937 6.046875,-3.8125 1.953125,-0.96875 4.109375,-0.96875 3.21875,0 9.078125,5.90625 5.859375,5.90625 5.859375,9.125 l 0,8.20312 -21,12.79688 0.984375,3.32812 q 3.90625,1.84375 7.609375,1.84375 13.09375,0 18.84375,-4.57812 9.484375,-7.42188 10.65625,-13.28125 -0.109375,-4.40625 0.78125,-13.09375 0.1875,-0.78125 1.84375,-3.46875 1.671875,-2.6875 11.828125,-14.20312 22.45313,-25.875005 68.0625,-77.04688 1.95312,-2.15625 5.76562,-4.015625 4.29688,-2.046875 10.25,-2.4375 7.71875,-0.390625 10.15625,-0.96875 6.25,-1.5625 11.46875,-7.875 Q 190.4375,2.4375 190.4375,-3.90625"
         style="fill:#ffffff;stroke:#ffffff"
         id="path3401" />
    </g>
    <path
       sodipodi:type="star"
       style="color:#000000;display:inline;overflow:visible;visibility:visible;opacity:1;fill:#ffffff;fill-opacity:1;fill-rule:nonzero;stroke:#ffffff;stroke-width:2;stroke-linecap:butt;stroke-linejoin:round;stroke-miterlimit:4;stroke-dasharray:none;stroke-dashoffset:0;stroke-opacity:1;marker:none;enable-background:accumulate"
       id="path3446"
       sodipodi:sides="3"
       sodipodi:cx="475.25637"
       sodipodi:cy="933.0774"
       sodipodi:r1="42.192768"
       sodipodi:r2="21.096382"
       sodipodi:arg1="0.5198885"
       sodipodi:arg2="1.5670861"
       inkscape:flatsided="true"
       inkscape:rounded="0"
       inkscape:randomized="0"
       d="m 511.87441,954.03806 -73.07952,0.27114 36.30494,-63.42429 z"
       inkscape:transform-center-x="-0.07827312"
       inkscape:transform-center-y="-10.480333" />
  </g>
</svg>
